<svg width="309.1085552615814" height="311.3347198486328" viewBox="0 -5 200 201.44037720675027" xmlns="http://www.w3.org/2000/svg">
    <defs id="SvgjsDefs1439"></defs>
    
    <!-- Symbol/Icon Part -->
    <g id="SvgjsG1440" transform="matrix(0.9411766395437154,0,0,0.9411766395437154,52.94092747244935,-12.504366707183246)" fill="#f6f6f6">
        <g>
            <path fill-rule="evenodd" clip-rule="evenodd" d="M18.191,64.081c-0.457-2.148-2.669-3.127-4.646-3.37c-1.792-0.22-3.938,0.386-5.043,1.896c-0.294,0.4-0.465,0.861-0.537,1.351c-0.271,1.859,0.899,4.141,2.249,5.207c1.526,1.206,3.472,1.123,5.199,0.375C17.438,68.661,18.649,66.237,18.191,64.081z"></path>
            <path fill-rule="evenodd" clip-rule="evenodd" d="M32.656,75.482c-1,0.502-1.813,2.121-2.089,3.056c-0.498,1.688,0.226,4.295,2.042,4.942c1.974,0.704,3.031-0.823,3.191-2.625c0.141-1.588-0.346-3.84-1.5-5.017C33.734,75.262,33.17,75.225,32.656,75.482z"></path>
            <path fill-rule="evenodd" clip-rule="evenodd" d="M72.916,56.606c1.375-0.135,2.863-0.534,4.143-1.048c0.873-0.351,1.708-0.831,2.466-1.416c3.335-2.573,4.927-7.45,1.92-10.949c-1.118-1.301-3.084-2.275-4.751-2.538c-3.254-0.511-6.531,0.706-9.802,0.17c-1.361-0.223-2.903-0.758-3.566-2.074c-0.858-1.703,0.171-3.95,0.642-5.63c1.216-4.34,0.006-8.263-3.918-10.631c-2.764-1.668-6.762-1.708-9.852-1.127c-2.273,0.426-3.803,1.764-4.997,3.679c-0.989,1.584-1.712,4.344-3.919,4.565c-1.573,0.158-2.906-0.97-4.213-1.66c-1.454-0.767-3.096-1.057-4.691-0.509c-3.371,1.158-2.977,4.674-2.995,7.552c-0.009,1.428-0.147,3.465-2,3.541c-1.917,0.079-3.642-1.746-5.051-2.806c-2.071-1.558-4.613-1.794-7.099-1.063c-3.085,0.907-4.437,4.168-4.186,7.175c0.281,3.363,2.483,5.812,4.962,7.88c1.973,1.646,4.456,3.026,5.993,5.133c1.302,1.786,0.898,4.247,0.786,6.308c-0.099,1.822,0.01,3.771,0.805,5.445c0.628,1.322,1.93,2.559,3.177,3.282c5.294,3.072,13.469,2.817,18.503-0.613c1.917-1.308,3.862-2.942,6.286-1.905c1.649,0.705,2.846,2.075,4.186,3.213c1.41,1.198,3.048,2.022,4.899,2.27c2.035,0.272,4.332-0.166,5.97-1.444c1.659-1.295,2.284-3.519,1.569-5.493c-0.722-1.991-3.235-3.15-3.257-5.479C64.891,56.821,70.497,56.845,72.916,56.606z"></path>
            <path fill-rule="evenodd" clip-rule="evenodd" d="M8.437,53.877c1.257,0.604,4.583,0.579,3.375-1.709c-0.01-0.019-0.02-0.036-0.03-0.055c-0.517-0.923-1.599-1.69-2.668-1.439c-0.88,0.207-1.69,0.948-1.608,1.928C7.557,53.208,7.907,53.622,8.437,53.877z"></path>
            <path fill-rule="evenodd" clip-rule="evenodd" d="M77.506,33.747c2.459-1.808,0.601-4.836-2.078-4.472c-2.096,0.285-3.688,2.148-2.08,4.042C74.613,34.807,76.344,34.603,77.506,33.747z"></path>
            <path fill-rule="evenodd" clip-rule="evenodd" d="M37.056,21.654c0.011-0.002,0.021-0.004,0.032-0.006c1.839-0.374,1.005-3.11-0.419-3.422C34.617,17.777,34.407,22.146,37.056,21.654z"></path>
            <path fill-rule="evenodd" clip-rule="evenodd" d="M24.403,75.72c-1.313-0.035-2.741,0.476-3.647,1.126c-2.852,2.046-4.66,5.79-4.825,9.263c-0.115,2.427,1.228,5.193,3.758,5.809c3.235,0.787,5.712-2.845,6.743-5.381c1.182-2.907,2.654-6.988,0.364-9.775C26.207,76.044,25.333,75.745,24.403,75.72z"></path>
            <path fill-rule="evenodd" clip-rule="evenodd" d="M48.22,73.479c-0.109-0.063-0.22-0.114-0.329-0.151c-1.237-0.423-2.372,0.819-2.551,2.034c-0.267,1.802,2.384,3.751,3.688,1.981C49.795,76.302,49.289,74.103,48.22,73.479z"></path>
            <path fill-rule="evenodd" clip-rule="evenodd" d="M92.184,66.836c-0.476-1.306-1.634-2.184-2.818-2.816c-3.161-1.691-7.611-2.771-11.164-1.882c-2.091,0.522-3.814,2.128-2.901,4.334c1.331,3.217,5.354,5.739,8.504,6.854c2.525,0.894,5.547,0.597,7.494-1.391c0.533-0.545,0.883-1.253,1.061-2.013C92.598,68.901,92.529,67.784,92.184,66.836z"></path>
            <path fill-rule="evenodd" clip-rule="evenodd" d="M26.675,23.142c1.938,1.319,4.115,0.608,4.753-1.677c0.315-1.13,0.38-2.343,0.283-3.569c-0.162-2.063-0.78-4.163-1.427-5.97c-0.946-2.645-3.546-4.415-6.393-3.846c-1.287,0.257-2.167,1.24-2.587,2.446c-0.858,2.455,0.06,5.042,1.195,7.238C23.539,19.771,24.769,21.844,26.675,23.142z"></path>
        </g>
    </g>
    
    <!-- Text "Pipy" Part -->
    <g id="SvgjsG1441" transform="matrix(3.4003606034270297,0,0,3.4003606034270297,-6.800676617851167,58.96189342741883)" fill="#f6f6f6">
        <path d="M8.4008 29.695 c-0.5476 -0.015781 -1.0933 -0.077032 -1.7231 -0.12402 c0 1.1758 0.0048436 2.2391 -0.00125 3.3024 c-0.0097264 1.7462 -0.025117 3.492 -0.041328 5.238 c-0.0016016 0.16121 -0.0096876 0.32527 -0.038438 0.48364 c-0.2475 1.361 -0.21188 1.9418 -2.0237 1.6672 c-0.53992 -0.081836 -1.0981 -0.036484 -1.6474 -0.061992 c-0.6886 -0.031992 -0.77488 -0.13648 -0.76476 -0.802 c0.057928 -3.7516 0.12356 -7.5028 0.15797 -11.254 c0.008086 -0.87128 -0.052656 -1.7486 -0.15555 -2.6142 c-0.33496 -2.8156 -0.07328 -5.6228 0.067696 -8.4324 c0.069688 -1.3885 0.11426 -2.7799 0.24266 -4.1636 c0.095588 -1.028 0.14906 -1.0021 1.2087 -1.0803 c1.9119 -0.14137 3.8168 -0.10289 5.7096 0.19484 c1.6461 0.25922 3.0557 1.0122 4.248 2.1756 c1.3618 1.3282 1.8033 3.0152 1.9236 4.8404 c0.14258 2.167 -0.13934 4.274 -1.0025 6.2628 c-0.38074 0.87736 -0.90812 1.715 -1.4938 2.4745 c-1.1686 1.5153 -2.8358 1.9463 -4.6668 1.8932 z M9.2476 16.493 c-0.79308 -0.11422 -1.5878 -0.2159 -2.5648 -0.34754 c-0.066836 2.912 -0.10004 5.7032 -0.087072 8.57 c0.78056 0 1.4234 0.02957 2.0625 -0.0064844 c1.0803 -0.061172 1.7474 -0.59908 2.1022 -1.6713 c0.50836 -1.536 0.61932 -3.0974 0.54276 -4.6832 c-0.015781 -0.32281 -0.19969 -0.67724 -0.40344 -0.94256 c-0.40752 -0.53064 -0.98632 -0.82388 -1.6522 -0.91908 z M19.6063 25.93 c0.063592 -0.00082032 0.12676 -0.0016406 0.19035 -0.0024609 c-0.060744 -2.0054 -0.15551 -4.0108 -0.17254 -6.0168 c-0.016602 -1.9414 0.030391 -3.8841 0.082656 -5.8256 c0.025117 -0.93408 0.13527 -1.0321 1.0511 -1.201 c0.47716 -0.087892 0.9608 -0.14664 1.4444 -0.18957 c1.0333 -0.091524 1.3156 0.091952 1.3877 1.1143 c0.097616 1.3861 0.1057 2.7787 0.13973 4.1692 c0.072108 2.9435 0.13207 5.8872 0.20418 8.8304 c0.08426 3.4296 0.20215 6.8588 0.25398 10.289 c0.023906 1.5785 -1.0888 2.5182 -2.6531 2.2185 c-1.907 -0.36535 -1.9082 -0.31715 -1.9212 -2.2233 c-0.025508 -3.7208 -0.0072656 -7.442 -0.0072656 -11.163 z M34.60080000000001 29.695 c-0.5476 -0.015781 -1.0933 -0.077032 -1.7231 -0.12402 c0 1.1758 0.0048436 2.2391 -0.00125 3.3024 c-0.0097264 1.7462 -0.025117 3.492 -0.041328 5.238 c-0.0016016 0.16121 -0.0096876 0.32527 -0.038438 0.48364 c-0.2475 1.361 -0.21188 1.9418 -2.0237 1.6672 c-0.53992 -0.081836 -1.0981 -0.036484 -1.6474 -0.061992 c-0.6886 -0.031992 -0.77488 -0.13648 -0.76476 -0.802 c0.057928 -3.7516 0.12356 -7.5028 0.15797 -11.254 c0.008086 -0.87128 -0.052656 -1.7486 -0.15555 -2.6142 c-0.33496 -2.8156 -0.07328 -5.6228 0.067696 -8.4324 c0.069688 -1.3885 0.11426 -2.7799 0.24266 -4.1636 c0.095588 -1.028 0.14906 -1.0021 1.2087 -1.0803 c1.9119 -0.14137 3.8168 -0.10289 5.7096 0.19484 c1.6461 0.25922 3.0557 1.0122 4.248 2.1756 c1.3618 1.3282 1.8033 3.0152 1.9236 4.8404 c0.14258 2.167 -0.13934 4.274 -1.0025 6.2628 c-0.38074 0.87736 -0.90812 1.715 -1.4938 2.4745 c-1.1686 1.5153 -2.8358 1.9463 -4.6668 1.8932 z M35.4476 16.493 c-0.79308 -0.11422 -1.5878 -0.2159 -2.5648 -0.34754 c-0.066836 2.912 -0.10004 5.7032 -0.087072 8.57 c0.78056 0 1.4234 0.02957 2.0625 -0.0064844 c1.0803 -0.061172 1.7474 -0.59908 2.1022 -1.6713 c0.50836 -1.536 0.61932 -3.0974 0.54276 -4.6832 c-0.015781 -0.32281 -0.19969 -0.67724 -0.40344 -0.94256 c-0.40752 -0.53064 -0.98632 -0.82388 -1.6522 -0.91908 z M53.140800000000006 19.596 c0.068436 0.20496 0.17734 0.3975 0.29238 0.64984 c1.0799 -2.7778 2.131 -5.4832 3.153 -8.1116 c1.1763 -0.079804 2.2068 -0.1584 3.2388 -0.21633 c0.81376 -0.04578 1.0868 0.22965 0.9644 1.0215 c-0.063204 0.41076 -0.20699 0.81456 -0.35688 1.2054 c-1.4716 3.835 -2.9606 7.6632 -4.4188 11.503 c-0.19039 0.50188 -0.30543 1.0552 -0.33539 1.5915 c-0.20254 3.6224 -0.23777 7.2472 -0.066836 10.873 c0.022695 0.48324 0.0085156 0.97456 -0.052656 1.4541 c-0.088712 0.69424 -0.34672 0.89884 -1.041 0.85952 c-0.90084 -0.050624 -1.8021 -0.11262 -2.6993 -0.20539 c-0.80484 -0.083048 -1.0256 -0.28438 -1.0272 -1.1119 c-0.0028516 -1.877 0.049412 -3.7541 0.089532 -5.6312 c0.039297 -1.8442 0.10856 -3.6884 0.13125 -5.5328 c0.012969 -1.0454 -0.21102 -2.0366 -0.67888 -2.9974 c-0.49456 -1.0146 -0.87816 -2.0856 -1.2755 -3.1452 c-0.99888 -2.6648 -1.975 -5.3384 -2.9662 -8.006 c-0.52656 -1.4177 -0.42976 -1.5582 1.0426 -1.6202 c0.51404 -0.021484 1.026 -0.12356 1.5364 -0.20215 c0.90328 -0.13973 1.6044 0.11262 1.973 1.0062 c0.57884 1.4031 1.1702 2.8014 1.7158 4.2176 c0.30176 0.78336 0.51644 1.6 0.78136 2.3979 z"></path>
    </g>
</svg>